# xmcd
#
# Track frame offsets: 
#        150
#        27729
#        50662
#        69891
#        90799
#        112747
#        130934
#        154297
#        171083
#        196147
#
# Disc length: 2936 seconds
#
# Revision: 0
# Processed by: cddbd v1.5.2PL0 Copyright (c) Steve Scherf et al.
# Submitted via: ExactAudioCopy v1.0b3
#
DISCID=7a0b760a
DTITLE=Phi Nhung - Do Doc
DYEAR=1997
DGENRE=
TTITLE0=Do doc
TTITLE1=Mien Trung thuong nho
TTITLE2=Chieu dong que
TTITLE3=Tinh yeu don phuong
TTITLE4=Thuong anh mat doi mat cho
TTITLE5=Giac ngu tren tay
TTITLE6=Suong trang mien que ngoai
TTITLE7=Con thuong goc bep chai he
TTITLE8=Tren dong song nho
TTITLE9=Khoc tham
EXTD=
EXTT0=
EXTT1=
EXTT2=
EXTT3=
EXTT4=
EXTT5=
EXTT6=
EXTT7=
EXTT8=
EXTT9=
PLAYORDER=
